<html>
<head>
<meta charset="UTF-8">
<meta name="viewport" content="width=device-width, initial-scale=1.0"/>

<style>
.comment
{
    padding-left: 20px;
    margin-top: 4px;
    margin-right: 4px;
    margin-bottom: 4px;
    border: 2px #000 solid;
}
.submission
{
    border: 4px #00f solid;
    padding-left: 20px;
}
.hidden
{
    display: none;
}
</style>
</head>
<body><div class="submission" id="t3_3ujpfa">
    <p class="userinfo">
        <a href="https://www.reddit.com/u/Fed50">Fed50</a>
        <span class="score"> | 0 points</span>
        <span class="timestamp"> | Nov 28 2015 04:13:28</span>
    </p>
    <strong>[REQUEST] Harry potter chamber of secrets</strong>
    <p></p>
    <p class="toolbar">
        <a href="https://www.reddit.com/r/megalinks/comments/3ujpfa">permalink</a>
    </p>
</div>
<div class="comment" id="t1_cxgaesc">
    <p class="userinfo">
        <a
        class="toggle_hide_button"
        href="javascript:void(0)"
        onclick="toggle_collapse(this.parentElement.parentElement)">[-]
        </a>
        <a href="https://www.reddit.com/u/megatosser">megatosser</a>
        <span class="score"> | -1 points</span>
        <span class="timestamp"> | Nov 29 2015 01:20:28</span>
    </p>
    <div class="collapsible">
        <p>http://www.keeplinks.eu/p/565a52ba08c61</p>
        <p class="toolbar">
            <a href="https://www.reddit.com/r/megalinks/comments/3ujpfa/_/cxgaesc">permalink</a>
        </p>
        <div class="comment" id="t1_cxi9zav">
    <p class="userinfo">
        <a
        class="toggle_hide_button"
        href="javascript:void(0)"
        onclick="toggle_collapse(this.parentElement.parentElement)">[-]
        </a>
        <a href="https://www.reddit.com/u/c1AriTy_">c1AriTy_</a>
        <span class="score"> | 1 points</span>
        <span class="timestamp"> | Nov 30 2015 20:26:33</span>
    </p>
    <div class="collapsible">
        <p>Gosh, is that Bluray, 11GB, if so can you upload other movies of harry potter series of the same quality too?</p>
        <p class="toolbar">
            <a href="https://www.reddit.com/r/megalinks/comments/3ujpfa/_/cxi9zav">permalink</a>
        </p>
        <div class="comment" id="t1_cxjyw4z">
    <p class="userinfo">
        <a
        class="toggle_hide_button"
        href="javascript:void(0)"
        onclick="toggle_collapse(this.parentElement.parentElement)">[-]
        </a>
        <a href="https://www.reddit.com/u/megatosser">megatosser</a>
        <span class="score"> | 2 points</span>
        <span class="timestamp"> | Dec 02 2015 03:15:58</span>
    </p>
    <div class="collapsible">
        <p>It's not bluray, just stupid high bitrate for the resolution and FPS</p>
<pre><code>Video
ID                                       : 1
Format                                   : AVC
Format/Info                              : Advanced Video Codec
Format profile                           : High@L4.1
Format settings, CABAC                   : Yes
Format settings, ReFrames                : 8 frames
Codec ID                                 : V_MPEG4/ISO/AVC
Duration                                 : 2h 54mn
Bit rate                                 : 7 708 Kbps
Width                                    : 1 280 pixels
Height                                   : 534 pixels
Display aspect ratio                     : 2.40:1
Frame rate mode                          : Constant
Frame rate                               : 23.976 fps
Color space                              : YUV
Chroma subsampling                       : 4:2:0
Bit depth                                : 8 bits
Scan type                                : Progressive
Bits/(Pixel*Frame)                       : 0.470
Stream size                              : 9.17 GiB (82%)
Writing library                          : x264 core 133 r2334 a3ac64b
Encoding settings                        : cabac=1 / ref=8 / deblock=1:-2:-1 / analyse=0x3:0x113 / me=umh / subme=11 / psy=1 / psy_rd=1.00:0.10 / mixed_ref=1 / me_range=24 / chroma_me=1 / trellis=2 / 8x8dct=1 / cqm=0 / deadzone=21,11 / fast_pskip=1 / chroma_qp_offset=-3 / threads=12 / lookahead_threads=3 / sliced_threads=0 / nr=0 / decimate=1 / interlaced=0 / bluray_compat=0 / constrained_intra=0 / bframes=12 / b_pyramid=2 / b_adapt=2 / b_bias=0 / direct=3 / weightb=1 / open_gop=0 / weightp=2 / keyint=250 / keyint_min=23 / scenecut=40 / intra_refresh=0 / rc_lookahead=40 / rc=2pass / mbtree=0 / bitrate=7708 / ratetol=1.0 / qcomp=0.60 / qpmin=0 / qpmax=69 / qpstep=4 / cplxblur=20.0 / qblur=0.5 / vbv_maxrate=40000 / vbv_bufsize=40000 / nal_hrd=none / ip_ratio=1.40 / pb_ratio=1.30 / aq=1:0.50 / zones=240981,249578,q=30,deblock=1:2
Default                                  : Yes
Forced                                   : No

Audio
ID                                       : 2
Format                                   : DTS
Format/Info                              : Digital Theater Systems
Mode                                     : 16
Format settings, Endianness              : Big
Codec ID                                 : A_DTS
Duration                                 : 2h 54mn
Bit rate mode                            : Constant
Bit rate                                 : 1 509 Kbps
Channel(s)                               : 6 channels
Channel positions                        : Front: L C R, Side: L R, LFE
Sampling rate                            : 48.0 KHz
Bit depth                                : 24 bits
Compression mode                         : Lossy
Stream size                              : 1.84 GiB (16%)
Language                                 : English
Default                                  : Yes
Forced                                   : No
</code></pre>
<p>there is a similarly encoded Sorcerer's stone but the rest are smaller encodes</p>
        <p class="toolbar">
            <a href="https://www.reddit.com/r/megalinks/comments/3ujpfa/_/cxjyw4z">permalink</a>
        </p>
        
    </div>
</div>
    </div>
</div>
    </div>
</div>
</body>

<script>
function toggle_collapse(comment_div)
{
    var button = comment_div.getElementsByClassName("toggle_hide_button")[0];
    var collapsible = comment_div.getElementsByClassName("collapsible")[0];
    if (collapsible.classList.contains("hidden"))
    {
        collapsible.classList.remove("hidden");
        button.innerText = "[-]";
    }
    else
    {
        collapsible.classList.add("hidden");
        button.innerText = "[+]";
    }
}
</script>
</html>
